<svg width="1200" height="800" xmlns="http://www.w3.org/2000/svg"><defs><linearGradient id="prefix__b" x1="0%" y1="0%" x2="100%" y2="100%"><stop offset="0%" stop-color="#f44"/><stop offset="100%" stop-color="#c00"/></linearGradient><linearGradient id="prefix__c" x1="0%" y1="0%" x2="100%" y2="100%"><stop offset="0%" stop-color="#f80"/><stop offset="100%" stop-color="#f60"/></linearGradient><linearGradient id="prefix__d" x1="0%" y1="0%" x2="100%" y2="100%"><stop offset="0%" stop-color="#fa0"/><stop offset="100%" stop-color="#f80"/></linearGradient><linearGradient id="prefix__e" x1="0%" y1="0%" x2="100%" y2="100%"><stop offset="0%" stop-color="#44f"/><stop offset="100%" stop-color="#00c"/></linearGradient><filter id="prefix__a" x="-20%" y="-20%" width="140%" height="140%"/></defs><path fill="#f8f9fa" d="M0 0h1200v800H0z"/><text x="600" y="50" text-anchor="middle" font-family="Arial, sans-serif" font-size="28" font-weight="bold" fill="#2c3e50">API 风险治理框架 - 业务场景版</text><circle cx="600" cy="400" r="80" fill="#2c3e50" filter="url(#prefix__a)"/><text x="600" y="390" text-anchor="middle" font-family="Arial, sans-serif" font-size="16" font-weight="bold" fill="#fff">API 风险</text><text x="600" y="410" text-anchor="middle" font-family="Arial, sans-serif" font-size="12" fill="#fff">治理中心</text><circle cx="200" cy="200" r="60" fill="url(#prefix__b)" filter="url(#prefix__a)"/><text x="200" y="195" text-anchor="middle" font-family="Arial, sans-serif" font-size="14" font-weight="bold" fill="#fff">漏洞利用</text><text x="200" y="210" text-anchor="middle" font-family="Arial, sans-serif" font-size="10" fill="#fff">SQL注入/XSS</text><path stroke="#666" stroke-width="3" stroke-dasharray="5 5" d="M260 200l260 200"/><path fill="#fff" stroke="#ddd" stroke-width="2" filter="url(#prefix__a)" d="M50 300h300v120H50z"/><text x="200" y="320" text-anchor="middle" font-family="Arial, sans-serif" font-size="14" font-weight="bold" fill="#d32f2f">防护措施</text><text x="60" y="340" font-family="Arial, sans-serif" font-size="11" fill="#333">• 静态代码扫描</text><text x="60" y="355" font-family="Arial, sans-serif" font-size="11" fill="#333">• 动态安全测试</text><text x="60" y="370" font-family="Arial, sans-serif" font-size="11" fill="#333">• 输入参数校验</text><text x="60" y="385" font-family="Arial, sans-serif" font-size="11" fill="#333">• WAF 防护</text><text x="60" y="400" font-family="Arial, sans-serif" font-size="11" fill="#333">• 24小时修复周期</text><circle cx="1000" cy="200" r="60" fill="url(#prefix__c)" filter="url(#prefix__a)"/><text x="1000" y="195" text-anchor="middle" font-family="Arial, sans-serif" font-size="14" font-weight="bold" fill="#fff">恶意代码</text><text x="1000" y="210" text-anchor="middle" font-family="Arial, sans-serif" font-size="10" fill="#fff">文件上传攻击</text><path stroke="#666" stroke-width="3" stroke-dasharray="5 5" d="M940 200L680 400"/><path fill="#fff" stroke="#ddd" stroke-width="2" filter="url(#prefix__a)" d="M850 300h300v120H850z"/><text x="1000" y="320" text-anchor="middle" font-family="Arial, sans-serif" font-size="14" font-weight="bold" fill="#f60">防护措施</text><text x="860" y="340" font-family="Arial, sans-serif" font-size="11" fill="#333">• 文件类型白名单</text><text x="860" y="355" font-family="Arial, sans-serif" font-size="11" fill="#333">• 病毒扫描引擎</text><text x="860" y="370" font-family="Arial, sans-serif" font-size="11" fill="#333">• 存储隔离</text><text x="860" y="385" font-family="Arial, sans-serif" font-size="11" fill="#333">• 禁止执行权限</text><text x="860" y="400" font-family="Arial, sans-serif" font-size="11" fill="#333">• 实时内容检测</text><circle cx="200" cy="600" r="60" fill="url(#prefix__d)" filter="url(#prefix__a)"/><text x="200" y="595" text-anchor="middle" font-family="Arial, sans-serif" font-size="14" font-weight="bold" fill="#fff">恶意请求</text><text x="200" y="610" text-anchor="middle" font-family="Arial, sans-serif" font-size="10" fill="#fff">DDoS/爬虫</text><path stroke="#666" stroke-width="3" stroke-dasharray="5 5" d="M260 600l260-120"/><path fill="#fff" stroke="#ddd" stroke-width="2" filter="url(#prefix__a)" d="M50 480h300v120H50z"/><text x="200" y="500" text-anchor="middle" font-family="Arial, sans-serif" font-size="14" font-weight="bold" fill="#f80">防护措施</text><text x="60" y="520" font-family="Arial, sans-serif" font-size="11" fill="#333">• QPS 限制</text><text x="60" y="535" font-family="Arial, sans-serif" font-size="11" fill="#333">• AI 行为分析</text><text x="60" y="550" font-family="Arial, sans-serif" font-size="11" fill="#333">• 高防 IP</text><text x="60" y="565" font-family="Arial, sans-serif" font-size="11" fill="#333">• 流量清洗</text><text x="60" y="580" font-family="Arial, sans-serif" font-size="11" fill="#333">• 异常模式拦截</text><circle cx="1000" cy="600" r="60" fill="url(#prefix__e)" filter="url(#prefix__a)"/><text x="1000" y="595" text-anchor="middle" font-family="Arial, sans-serif" font-size="14" font-weight="bold" fill="#fff">恶意用户</text><text x="1000" y="610" text-anchor="middle" font-family="Arial, sans-serif" font-size="10" fill="#fff">身份伪造</text><path stroke="#666" stroke-width="3" stroke-dasharray="5 5" d="M940 600L680 480"/><path fill="#fff" stroke="#ddd" stroke-width="2" filter="url(#prefix__a)" d="M850 480h300v120H850z"/><text x="1000" y="500" text-anchor="middle" font-family="Arial, sans-serif" font-size="14" font-weight="bold" fill="#00c">防护措施</text><text x="860" y="520" font-family="Arial, sans-serif" font-size="11" fill="#333">• 多因素认证</text><text x="860" y="535" font-family="Arial, sans-serif" font-size="11" fill="#333">• 权限最小化</text><text x="860" y="550" font-family="Arial, sans-serif" font-size="11" fill="#333">• 操作审计</text><text x="860" y="565" font-family="Arial, sans-serif" font-size="11" fill="#333">• 实名验证</text><text x="860" y="580" font-family="Arial, sans-serif" font-size="11" fill="#333">• 行为异常检测</text><circle cx="600" cy="700" r="40" fill="#2c3e50" filter="url(#prefix__a)"/><text x="600" y="695" text-anchor="middle" font-family="Arial, sans-serif" font-size="12" font-weight="bold" fill="#fff">风险等级</text><text x="600" y="710" text-anchor="middle" font-family="Arial, sans-serif" font-size="10" fill="#fff">1-5级</text><path fill="#fff" stroke="#ddd" filter="url(#prefix__a)" d="M50 680h400v100H50z"/><text x="250" y="700" text-anchor="middle" font-family="Arial, sans-serif" font-size="14" font-weight="bold" fill="#2c3e50">业务场景风险等级</text><text x="60" y="720" font-family="Arial, sans-serif" font-size="11" fill="#333">• 5级：银行转账、贷款审批、支付接口</text><text x="60" y="735" font-family="Arial, sans-serif" font-size="11" fill="#333">• 4级：订单管理、库存控制、用户信息</text><text x="60" y="750" font-family="Arial, sans-serif" font-size="11" fill="#333">• 3级：商品详情、评论查询、地址管理</text><text x="60" y="765" font-family="Arial, sans-serif" font-size="11" fill="#333">• 1-2级：商品列表、搜索接口、静态资源</text><path fill="#fff" stroke="#ddd" filter="url(#prefix__a)" d="M750 680h400v100H750z"/><text x="950" y="700" text-anchor="middle" font-family="Arial, sans-serif" font-size="14" font-weight="bold" fill="#2c3e50">治理效果指标</text><text x="760" y="720" font-family="Arial, sans-serif" font-size="11" fill="#333">• 漏洞修复时间：敏感API ≤ 24小时</text><text x="760" y="735" font-family="Arial, sans-serif" font-size="11" fill="#333">• 异常检测率：≥ 95%</text><text x="760" y="750" font-family="Arial, sans-serif" font-size="11" fill="#333">• 误报率：≤ 5%</text><text x="760" y="765" font-family="Arial, sans-serif" font-size="11" fill="#333">• 安全事件响应：≤ 30分钟</text><defs><marker id="prefix__f" markerWidth="10" markerHeight="7" refX="9" refY="3.5" orient="auto"><path fill="#666" d="M0 0l10 3.5L0 7z"/></marker></defs><path stroke="#666" stroke-width="3" stroke-dasharray="5 5" marker-end="url(#prefix__f)" d="M260 200l260 200M940 200L680 400M260 600l260-120M940 600L680 480"/></svg>