<svg width="1200" height="800" xmlns="http://www.w3.org/2000/svg"><defs><linearGradient id="prefix__a" x1="0%" y1="0%" x2="100%" y2="100%"><stop offset="0%" stop-color="#f44"/><stop offset="100%" stop-color="#c00"/></linearGradient><linearGradient id="prefix__c" x1="0%" y1="0%" x2="100%" y2="100%"><stop offset="0%" stop-color="#fa0"/><stop offset="100%" stop-color="#f80"/></linearGradient><linearGradient id="prefix__d" x1="0%" y1="0%" x2="100%" y2="100%"><stop offset="0%" stop-color="#4f4"/><stop offset="100%" stop-color="#0c0"/></linearGradient><filter id="prefix__b" x="-20%" y="-20%" width="140%" height="140%"/></defs><path fill="#f8f9fa" d="M0 0h1200v800H0z"/><text x="600" y="40" text-anchor="middle" font-family="Arial, sans-serif" font-size="24" font-weight="bold" fill="#2c3e50">API 分类分级矩阵 - 业务场景版</text><text x="50" y="420" text-anchor="middle" font-family="Arial, sans-serif" font-size="16" font-weight="bold" fill="#2c3e50" transform="rotate(-90 50 420)">敏感程度</text><text x="600" y="750" text-anchor="middle" font-family="Arial, sans-serif" font-size="16" font-weight="bold" fill="#2c3e50">业务重要性</text><text x="120" y="680" text-anchor="middle" font-family="Arial, sans-serif" font-size="12" fill="#666">低敏感</text><text x="120" y="580" text-anchor="middle" font-family="Arial, sans-serif" font-size="12" fill="#666">中敏感</text><text x="120" y="480" text-anchor="middle" font-family="Arial, sans-serif" font-size="12" fill="#666">高敏感</text><text x="200" y="720" text-anchor="middle" font-family="Arial, sans-serif" font-size="12" fill="#666">低重要性</text><text x="400" y="720" text-anchor="middle" font-family="Arial, sans-serif" font-size="12" fill="#666">中重要性</text><text x="600" y="720" text-anchor="middle" font-family="Arial, sans-serif" font-size="12" fill="#666">高重要性</text><g stroke="#e0e0e0"><path d="M200 200v400M400 200v400M600 200v400M800 200v400M1000 200v400M200 200h800M200 300h800M200 400h800M200 500h800M200 600h800"/></g><path fill="url(#prefix__a)" opacity=".8" filter="url(#prefix__b)" d="M600 200h400v200H600z"/><text x="800" y="300" text-anchor="middle" font-family="Arial, sans-serif" font-size="18" font-weight="bold" fill="#fff">5级 - 高风险</text><text x="800" y="320" text-anchor="middle" font-family="Arial, sans-serif" font-size="12" fill="#fff">全链路严格防护</text><path fill="url(#prefix__c)" opacity=".8" filter="url(#prefix__b)" d="M400 200h200v200H400z"/><text x="500" y="300" text-anchor="middle" font-family="Arial, sans-serif" font-size="16" font-weight="bold" fill="#fff">4级</text><text x="500" y="315" text-anchor="middle" font-family="Arial, sans-serif" font-size="10" fill="#fff">基础安全控制</text><path fill="url(#prefix__c)" opacity=".8" filter="url(#prefix__b)" d="M600 400h400v100H600z"/><text x="800" y="450" text-anchor="middle" font-family="Arial, sans-serif" font-size="16" font-weight="bold" fill="#fff">3级</text><text x="800" y="465" text-anchor="middle" font-family="Arial, sans-serif" font-size="10" fill="#fff">基础安全控制</text><path fill="url(#prefix__d)" opacity=".8" filter="url(#prefix__b)" d="M200 200h200v200H200z"/><text x="300" y="300" text-anchor="middle" font-family="Arial, sans-serif" font-size="16" font-weight="bold" fill="#fff">2级</text><text x="300" y="315" text-anchor="middle" font-family="Arial, sans-serif" font-size="10" fill="#fff">轻量化防护</text><path fill="url(#prefix__d)" opacity=".8" filter="url(#prefix__b)" d="M200 400h200v100H200zM200 500h800v100H200z"/><text x="600" y="550" text-anchor="middle" font-family="Arial, sans-serif" font-size="16" font-weight="bold" fill="#fff">1级</text><text x="600" y="565" text-anchor="middle" font-family="Arial, sans-serif" font-size="10" fill="#fff">轻量化防护</text><circle cx="750" cy="250" r="8" fill="#fff" stroke="#333" stroke-width="2"/><text x="760" y="255" font-family="Arial, sans-serif" font-size="10" fill="#333">转账接口</text><circle cx="850" cy="280" r="8" fill="#fff" stroke="#333" stroke-width="2"/><text x="860" y="285" font-family="Arial, sans-serif" font-size="10" fill="#333">贷款审批</text><circle cx="900" cy="320" r="8" fill="#fff" stroke="#333" stroke-width="2"/><text x="910" y="325" font-family="Arial, sans-serif" font-size="10" fill="#333">支付接口</text><circle cx="950" cy="280" r="8" fill="#fff" stroke="#333" stroke-width="2"/><text x="960" y="285" font-family="Arial, sans-serif" font-size="10" fill="#333">用户删除</text><circle cx="500" cy="250" r="8" fill="#fff" stroke="#333" stroke-width="2"/><text x="510" y="255" font-family="Arial, sans-serif" font-size="10" fill="#333">订单查询</text><circle cx="450" cy="320" r="8" fill="#fff" stroke="#333" stroke-width="2"/><text x="460" y="325" font-family="Arial, sans-serif" font-size="10" fill="#333">库存管理</text><circle cx="550" cy="280" r="8" fill="#fff" stroke="#333" stroke-width="2"/><text x="560" y="285" font-family="Arial, sans-serif" font-size="10" fill="#333">用户信息</text><circle cx="700" cy="420" r="8" fill="#fff" stroke="#333" stroke-width="2"/><text x="710" y="425" font-family="Arial, sans-serif" font-size="10" fill="#333">商品详情</text><circle cx="750" cy="440" r="8" fill="#fff" stroke="#333" stroke-width="2"/><text x="760" y="445" font-family="Arial, sans-serif" font-size="10" fill="#333">评论查询</text><circle cx="800" cy="430" r="8" fill="#fff" stroke="#333" stroke-width="2"/><text x="810" y="435" font-family="Arial, sans-serif" font-size="10" fill="#333">优惠券查询</text><circle cx="650" cy="440" r="8" fill="#fff" stroke="#333" stroke-width="2"/><text x="660" y="445" font-family="Arial, sans-serif" font-size="10" fill="#333">地址修改</text><circle cx="300" cy="250" r="8" fill="#fff" stroke="#333" stroke-width="2"/><text x="310" y="255" font-family="Arial, sans-serif" font-size="10" fill="#333">帮助中心</text><circle cx="250" cy="350" r="8" fill="#fff" stroke="#333" stroke-width="2"/><text x="260" y="355" font-family="Arial, sans-serif" font-size="10" fill="#333">公开信息</text><circle cx="350" cy="300" r="8" fill="#fff" stroke="#333" stroke-width="2"/><text x="360" y="305" font-family="Arial, sans-serif" font-size="10" fill="#333">公告查询</text><circle cx="500" cy="550" r="8" fill="#fff" stroke="#333" stroke-width="2"/><text x="510" y="555" font-family="Arial, sans-serif" font-size="10" fill="#333">商品列表</text><circle cx="600" cy="540" r="8" fill="#fff" stroke="#333" stroke-width="2"/><text x="610" y="545" font-family="Arial, sans-serif" font-size="10" fill="#333">搜索接口</text><circle cx="800" cy="530" r="8" fill="#fff" stroke="#333" stroke-width="2"/><text x="810" y="535" font-family="Arial, sans-serif" font-size="10" fill="#333">静态资源</text><circle cx="900" cy="550" r="8" fill="#fff" stroke="#333" stroke-width="2"/><text x="910" y="555" font-family="Arial, sans-serif" font-size="10" fill="#333">图片服务</text><path fill="url(#prefix__a)" d="M50 50h15v15H50z"/><text x="75" y="62" font-family="Arial, sans-serif" font-size="12" fill="#333">高风险 (5级)</text><path fill="url(#prefix__c)" d="M50 75h15v15H50z"/><text x="75" y="87" font-family="Arial, sans-serif" font-size="12" fill="#333">中风险 (3-4级)</text><path fill="url(#prefix__d)" d="M50 100h15v15H50z"/><text x="75" y="112" font-family="Arial, sans-serif" font-size="12" fill="#333">低风险 (1-2级)</text><text x="50" y="140" font-family="Arial, sans-serif" font-size="14" font-weight="bold" fill="#2c3e50">业务场景说明：</text><text x="50" y="160" font-family="Arial, sans-serif" font-size="11" fill="#666">• 银行：转账、贷款审批、支付接口（5级）</text><text x="50" y="175" font-family="Arial, sans-serif" font-size="11" fill="#666">• 电商：订单查询、库存管理、用户信息（4级）</text><text x="50" y="190" font-family="Arial, sans-serif" font-size="11" fill="#666">• 通用：商品详情、评论查询、搜索接口（1-3级）</text><text x="50" y="220" font-family="Arial, sans-serif" font-size="14" font-weight="bold" fill="#2c3e50">防护措施说明：</text><text x="50" y="240" font-family="Arial, sans-serif" font-size="11" fill="#666">• 5级：多因素认证、操作日志审计、实时行为监控、数据脱敏</text><text x="50" y="255" font-family="Arial, sans-serif" font-size="11" fill="#666">• 3-4级：令牌认证、参数校验、频率限制</text><text x="50" y="270" font-family="Arial, sans-serif" font-size="11" fill="#666">• 1-2级：基础访问控制、异常流量监控</text></svg>