<svg version="1.1" id="Layer_1" xmlns="http://www.w3.org/2000/svg" xmlns:xlink="http://www.w3.org/1999/xlink" x="0px" y="0px"
	 width="100%" viewBox="0 0 256 256" enable-background="new 0 0 256 256" xml:space="preserve">
<path fill="#000000" opacity="1.000000" stroke="none" 
	d="
M174.000000,257.000000 
	C116.000000,257.000000 58.500008,257.000000 1.000008,257.000000 
	C1.000005,171.666672 1.000005,86.333351 1.000003,1.000019 
	C86.333321,1.000013 171.666641,1.000013 257.000000,1.000006 
	C257.000000,86.333313 257.000000,171.666626 257.000000,256.999969 
	C229.500000,257.000000 202.000000,257.000000 174.000000,257.000000 
M98.952209,84.405022 
	C109.971649,81.050781 120.991081,77.696541 133.036377,74.030037 
	C132.127884,76.820618 131.671738,78.685074 130.929947,80.427948 
	C124.188950,96.266243 117.160454,111.986603 110.672592,127.927269 
	C98.136948,158.727280 89.792618,190.816742 82.199608,223.107819 
	C81.609367,225.617966 82.121933,228.387451 82.121933,231.036392 
	C82.832947,231.218994 83.543968,231.401611 84.254982,231.584213 
	C86.033768,228.945969 88.220604,226.494827 89.529068,223.640945 
	C104.836777,190.253525 120.167595,156.874924 135.155899,123.343613 
	C142.378067,107.186455 149.047012,90.774185 155.583633,74.325294 
	C156.830826,71.186882 158.237411,69.091042 161.386642,68.309082 
	C177.070374,64.414787 192.733994,60.430733 208.473572,56.774788 
	C213.998306,55.491520 214.972565,54.633347 212.822372,49.570953 
	C211.670303,46.858517 210.172577,44.175739 208.314560,41.901329 
	C201.597946,33.679523 193.253387,32.224068 183.107574,35.073235 
	C145.669128,45.586765 108.107277,55.660900 70.590202,65.894279 
	C67.627419,66.702431 66.507446,68.754555 67.133766,71.570343 
	C69.512939,82.266441 82.495895,89.561066 92.945480,86.196144 
	C94.678444,85.638107 96.453018,85.209328 98.952209,84.405022 
z"/>
<path fill="#FCFCFC" opacity="1.000000" stroke="none" 
	d="
M98.580292,84.562927 
	C96.453018,85.209328 94.678444,85.638107 92.945480,86.196144 
	C82.495895,89.561066 69.512939,82.266441 67.133766,71.570343 
	C66.507446,68.754555 67.627419,66.702431 70.590202,65.894279 
	C108.107277,55.660900 145.669128,45.586765 183.107574,35.073235 
	C193.253387,32.224068 201.597946,33.679523 208.314560,41.901329 
	C210.172577,44.175739 211.670303,46.858517 212.822372,49.570953 
	C214.972565,54.633347 213.998306,55.491520 208.473572,56.774788 
	C192.733994,60.430733 177.070374,64.414787 161.386642,68.309082 
	C158.237411,69.091042 156.830826,71.186882 155.583633,74.325294 
	C149.047012,90.774185 142.378067,107.186455 135.155899,123.343613 
	C120.167595,156.874924 104.836777,190.253525 89.529068,223.640945 
	C88.220604,226.494827 86.033768,228.945969 84.254982,231.584213 
	C83.543968,231.401611 82.832947,231.218994 82.121933,231.036392 
	C82.121933,228.387451 81.609367,225.617966 82.199608,223.107819 
	C89.792618,190.816742 98.136948,158.727280 110.672592,127.927269 
	C117.160454,111.986603 124.188950,96.266243 130.929947,80.427948 
	C131.671738,78.685074 132.127884,76.820618 133.036377,74.030037 
	C120.991081,77.696541 109.971649,81.050781 98.580292,84.562927 
z"/>
</svg>